<svg width="48" height="48" viewBox="0 0 48 48" fill="none" xmlns="http://www.w3.org/2000/svg">
<path d="M31 42.75L13.45 25.2C13.2833 25.0333 13.1667 24.8667 13.1 24.7C13.0333 24.5333 13 24.35 13 24.15C13 23.95 13.0333 23.7667 13.1 23.6C13.1667 23.4333 13.2833 23.2667 13.45 23.1L31 5.55C31.3667 5.18333 31.8333 5 32.4 5C32.9667 5 33.4333 5.18333 33.8 5.55C34.2 5.95 34.4 6.425 34.4 6.975C34.4 7.525 34.2 8 33.8 8.4L18.05 24.15L33.8 39.9C34.2 40.3 34.3917 40.775 34.375 41.325C34.3583 41.875 34.1667 42.3333 33.8 42.7C33.4 43.1 32.925 43.3 32.375 43.3C31.825 43.3 31.3667 43.1167 31 42.75V42.75Z" fill="black"/>
</svg>
